<?xml version="1.0" encoding="utf-8"?>
<!-- Generator: Adobe Illustrator 21.1.0, SVG Export Plug-In . SVG Version: 6.00 Build 0)  -->
<!DOCTYPE svg PUBLIC "-//W3C//DTD SVG 1.1//EN" "http://www.w3.org/Graphics/SVG/1.1/DTD/svg11.dtd">
<svg version="1.1" id="Layer_1" xmlns="http://www.w3.org/2000/svg" xmlns:xlink="http://www.w3.org/1999/xlink" x="0px" y="0px"
	 viewBox="0 0 200 31.1" style="enable-background:new 0 0 200 31.1;" xml:space="preserve">
<style type="text/css">
	.st0{fill:#0063AA;}
</style>
<g>
	<path d="M0,1.1h11.8c0,0,6.4,0.6,6.4,9.1c0,0,0.2,8.8-6.4,8.8H6.4v12.1H0l0-19h9.6c0,0,1.2,0,1.2-1.9c0,0,0.2-1.6-1.2-1.6H0V1.1z"
		/>
	<rect x="51.2" y="1.1" width="6.6" height="29.9"/>
	<path d="M60.5,31.1v-30h12.6c0,0,7.7-0.1,7.7,9.1v20.8h-6.3V10.2c0,0,0.1-1.6-1.8-1.6H67l0,22.4h-6.2L60.5,31.1z"/>
	<rect x="81.9" y="1.1" width="19.8" height="7.4"/>
	<rect x="88.4" y="12.1" width="6.8" height="19"/>
	<polyline points="103,1.1 109.5,1.1 118.4,22.8 115.2,30.9 	"/>
	<polygon points="119.6,1.1 116.1,9.3 125.3,31 137.4,1.1 130.2,1.1 125.3,14 	"/>
	<rect x="139.1" y="1.1" width="6.6" height="29.9"/>
	<path d="M151.7,1.1c0,0-2.5,5.8,3.9,12.2c0,0,6.1,5,5.5,8.3c0,0-0.4,2.6-3.4,2.8c0,0-6.7,0.2-7.1,0.2H150v6.3h8.8c0,0,9,0.6,9-10.4
		c0,0,0.2-3.6-5.1-8.9c0,0-4-4.1-4.3-5.4c-0.3-1.3,0-4.8,0-4.8V1.1L151.7,1.1L151.7,1.1z"/>
	<rect x="170.1" y="1.1" width="19.5" height="7.3"/>
	<polygon points="170.2,12.2 170.2,31.1 189.7,31.1 189.7,24.5 176.8,24.5 176.8,19.1 189.7,19.1 189.7,12.2 	"/>
	<path d="M195.3,3.8h0.5c0.6,0,1.1-0.2,1.1-0.8c0-0.4-0.3-0.8-1.1-0.8c-0.2,0-0.4,0-0.5,0V3.8z M195.3,6.3h-0.7V1.8
		c0.4-0.1,0.7-0.1,1.3-0.1c0.7,0,1.1,0.1,1.4,0.3c0.3,0.2,0.4,0.5,0.4,0.9c0,0.6-0.4,0.9-0.9,1.1v0c0.4,0.1,0.7,0.4,0.7,1.1
		c0.1,0.7,0.2,1,0.3,1.1h-0.7c-0.1-0.1-0.2-0.5-0.3-1.1c-0.1-0.6-0.4-0.8-1-0.8h-0.5L195.3,6.3L195.3,6.3z M196,0.6
		c-1.8,0-3.2,1.5-3.2,3.4c0,1.9,1.4,3.4,3.2,3.4c1.8,0,3.2-1.5,3.2-3.4C199.3,2.1,197.8,0.6,196,0.6L196,0.6z M196.1,0
		c2.2,0,3.9,1.8,3.9,4c0,2.3-1.7,4-4,4c-2.2,0-4-1.8-4-4C192.1,1.8,193.9,0,196.1,0L196.1,0z"/>
	<g>
		<path class="st0" d="M25.9,6.2c0.5,0,1,0.1,1.5,0.1c0.5-0.6,1.1-1.1,1.8-1.5l-0.3-0.7C27.7,4.7,26.7,5.4,25.9,6.2"/>
		<path class="st0" d="M32.3,26c1,0,2.1-0.1,3.1-0.3c1.1-0.2,2.1-0.5,3.1-1L35.8,19c-1,0.4-1.9,0.7-2.9,0.9
			c-1.1,0.2-2.1,0.2-3.2,0.1c0.2,2,0.6,4,1.2,6C31.3,26,31.8,26,32.3,26"/>
		<path class="st0" d="M45.4,19.4c-1.2-1.8-2.5-3.4-3.9-4.8c-1.2,1.6-2.8,2.9-4.7,3.9l2.7,5.8C41.9,23.1,43.9,21.4,45.4,19.4"/>
		<path class="st0" d="M35.6,26.8c-1.4,0.3-2.9,0.4-4.4,0.3c0.4,1.3,1,2.6,1.6,3.9c2.9,0.3,5.5-0.2,8-1.3L39,25.8
			C37.9,26.2,36.7,26.6,35.6,26.8"/>
		<path class="st0" d="M31.1,6.2c0.2-0.4,0.4-0.8,0.6-1.1c0,0-0.1,0-0.1,0c-0.3,0-0.6,0.1-0.9,0.2L31.1,6.2z"/>
		<path class="st0" d="M27.9,7.5c-0.3,0.5-0.5,1.1-0.6,1.7c0.7-0.5,1.4-1,2.1-1.4C29,7.7,28.5,7.6,27.9,7.5"/>
		<path class="st0" d="M49,12.7c-0.1,2.3-0.9,4.6-2.3,6.7c0.5,0.8,1,1.6,1.5,2.4c0.8-1.8,1.1-3.8,1.1-5.7C49.4,15,49.2,13.8,49,12.7
			"/>
		<path class="st0" d="M29.6,25.8c-0.6-2-0.9-4-1.1-6c-2.2-0.4-4.1-1.5-5.3-3.1c-0.6,1.7-0.9,3.5-0.9,5.3l0,0.1
			C24.2,24,26.8,25.3,29.6,25.8"/>
		<path class="st0" d="M40,25.3l1.8,3.8c2.5-1.4,4.5-3.5,5.9-6c-0.5-1-1.1-1.9-1.6-2.7C44.5,22.4,42.4,24.1,40,25.3"/>
		<path class="st0" d="M35.5,8.8c0.1-0.3,0.2-0.7,0.2-1c0-0.3-0.1-0.6-0.2-0.9c-1,0.1-1.9,0.4-2.8,0.7c0.1,0,0.1,0,0.2,0.1
			C33.8,8,34.7,8.4,35.5,8.8"/>
		<path class="st0" d="M33,5.1c-0.3,0.5-0.6,1-0.8,1.5C33,6.3,33.9,6,34.8,5.9C34.3,5.5,33.7,5.2,33,5.1"/>
		<path class="st0" d="M32.7,18.8c0.9-0.2,1.8-0.4,2.7-0.8l-2.4-5.2c-0.4,0.2-0.8,0.3-1.2,0.3c-0.6,0.1-1.2,0.1-1.8,0
			c-0.3,1.8-0.4,3.7-0.4,5.6C30.6,19,31.6,18.9,32.7,18.8"/>
		<path class="st0" d="M28.8,6.5c0.4,0.1,0.9,0.2,1.3,0.3l-0.4-1C29.3,6,29,6.3,28.8,6.5"/>
		<path class="st0" d="M41.9,7.2c-1.3-0.3-2.6-0.5-3.9-0.5h-0.1c-0.4,0-0.8,0-1.2,0.1c0.1,0.3,0.1,0.7,0.2,1c0,0.5-0.1,1.1-0.3,1.6
			c1.7,1,3.3,2.2,4.8,3.5c0.7-1.2,1-2.5,1-3.8C42.2,8.4,42.1,7.8,41.9,7.2"/>
		<path class="st0" d="M30.2,4.3C30.6,4.2,31,4.1,31.3,4c0.3-0.1,0.7-0.1,1-0.1c0.2-0.4,0.5-0.8,0.7-1.1c-0.2,0-0.4,0.1-0.6,0.1
			c-0.9,0.1-1.8,0.4-2.6,0.7L30.2,4.3z"/>
		<path class="st0" d="M23.1,14.1c0.7-1.3,1.6-2.4,2.6-3.5c0.2-0.2,0.4-0.4,0.6-0.6c0-0.2-0.1-0.4-0.1-0.6c0-0.7,0.2-1.4,0.5-2.1
			c-0.6-0.1-1.3-0.1-1.9-0.1c-1.3,1.6-2,3.5-2,5.3C22.9,13.1,23,13.6,23.1,14.1"/>
		<path class="st0" d="M35,9.8c-0.8-0.4-1.7-0.8-2.6-1.1c-0.1,0-0.2-0.1-0.3-0.1l1.3,2.8C34.1,10.9,34.7,10.4,35,9.8"/>
		<path class="st0" d="M33.6,4.1c1.1,0.2,1.9,0.8,2.5,1.6c0.6-0.1,1.2-0.1,1.7-0.1h0.1c1.1,0,2.2,0.1,3.3,0.3
			c-1.3-2-3.8-3.2-6.7-3.2C34.2,3.2,33.9,3.6,33.6,4.1"/>
		<path class="st0" d="M31.5,12.1c0.3-0.1,0.6-0.1,0.9-0.3L31.1,9c-0.4,1-0.7,2.1-1,3.2C30.6,12.2,31.1,12.2,31.5,12.1"/>
		<path class="st0" d="M26.7,11.2c-0.1,0.1-0.2,0.2-0.2,0.2c-1.2,1.2-2.1,2.5-2.8,4c1,1.6,2.6,2.7,4.7,3.2c-0.1-1.9,0.1-3.9,0.4-5.7
			C27.9,12.6,27.2,12,26.7,11.2"/>
		<path class="st0" d="M21.8,12.6c0-1.8,0.6-3.6,1.7-5.3c-0.4,0-0.8,0-1.2,0.1c-1.9,2.6-2.8,5.6-2.8,8.8c0,0.4,0,0.8,0.1,1.3
			c0.4,1.2,1,2.4,1.8,3.5c0.1-1.8,0.5-3.6,1.2-5.3C22,14.6,21.8,13.6,21.8,12.6"/>
		<path class="st0" d="M40.7,13.9c-1.5-1.4-3-2.6-4.7-3.5c-0.5,0.8-1.2,1.5-2.1,2l2.4,5.2C38.1,16.6,39.6,15.4,40.7,13.9"/>
		<path class="st0" d="M20.5,21.7c0.2,0.6,0.5,1.2,0.8,1.7c0-0.3-0.1-0.6-0.1-0.8C21,22.3,20.7,22,20.5,21.7"/>
		<path class="st0" d="M29.1,11.8c0.2-1,0.5-2.1,0.9-3.1c-0.8,0.5-1.7,1-2.4,1.7C27.9,11.1,28.4,11.5,29.1,11.8"/>
		<path class="st0" d="M22.5,23.7c0.1,0.7,0.2,1.3,0.4,2c2.2,2.6,5.2,4.4,8.6,5.1c-0.6-1.3-1.1-2.6-1.5-3.8
			C27.2,26.6,24.6,25.5,22.5,23.7"/>
		<path class="st0" d="M43.4,9.1c0,1.5-0.4,3.1-1.3,4.6c1.4,1.4,2.7,3,3.9,4.7c1.5-2.5,2.1-5.2,1.7-7.8c0-0.3-0.1-0.5-0.2-0.8
			c-1.4-1-2.9-1.8-4.5-2.3C43.3,8,43.3,8.6,43.4,9.1"/>
		<path class="st0" d="M28.4,3.1l-0.3-0.6c-0.8,0.4-1.6,0.8-2.4,1.4c-0.9,0.7-1.8,1.4-2.6,2.3c0.4,0,0.8,0,1.2,0
			C25.5,4.9,26.9,3.9,28.4,3.1"/>
		<path class="st0" d="M29.4,2.6c0.9-0.4,1.9-0.7,2.9-0.8c0.5-0.1,1.1-0.2,1.7-0.2c0.1-0.2,0.3-0.3,0.4-0.5c0,0-0.1,0-0.1,0h0
			l-0.1,0c-1.7,0-3.4,0.4-4.9,0.9L29.4,2.6z"/>
		<path class="st0" d="M34.3,1.2c0,0-0.1,0-0.1,0C34.2,1.2,34.3,1.2,34.3,1.2C34.3,1.2,34.3,1.2,34.3,1.2L34.3,1.2z"/>
		<path class="st0" d="M42.7,6.3c1.5,0.4,3,1.1,4.3,1.9c-2.5-3.9-6.7-6.5-11.3-6.9c-0.1,0.1-0.2,0.3-0.4,0.4
			C38.8,1.9,41.5,3.6,42.7,6.3"/>
	</g>
</g>
</svg>
